<?xml version="1.0" standalone="no"?><!DOCTYPE svg PUBLIC "-//W3C//DTD SVG 1.1//EN" "http://www.w3.org/Graphics/SVG/1.1/DTD/svg11.dtd"><svg t="1735613373605" class="icon" viewBox="0 0 1024 1024" version="1.1" xmlns="http://www.w3.org/2000/svg" p-id="4275" xmlns:xlink="http://www.w3.org/1999/xlink" width="200" height="200"><path d="M170.666667 170.666667m85.333333 0l0 0q85.333333 0 85.333333 85.333333l0 0q0 85.333333-85.333333 85.333333l0 0q-85.333333 0-85.333333-85.333333l0 0q0-85.333333 85.333333-85.333333Z" fill="#ffffff" opacity=".3" p-id="4276"></path><path d="M170.666667 426.666667m85.333333 0l0 0q85.333333 0 85.333333 85.333333l0 0q0 85.333333-85.333333 85.333333l0 0q-85.333333 0-85.333333-85.333333l0 0q0-85.333333 85.333333-85.333333Z" fill="#ffffff" p-id="4277"></path><path d="M426.666667 170.666667m85.333333 0l0 0q85.333333 0 85.333333 85.333333l0 0q0 85.333333-85.333333 85.333333l0 0q-85.333333 0-85.333333-85.333333l0 0q0-85.333333 85.333333-85.333333Z" fill="#ffffff" p-id="4278"></path><path d="M426.666667 426.666667m85.333333 0l0 0q85.333333 0 85.333333 85.333333l0 0q0 85.333333-85.333333 85.333333l0 0q-85.333333 0-85.333333-85.333333l0 0q0-85.333333 85.333333-85.333333Z" fill="#ffffff" p-id="4279"></path><path d="M682.666667 170.666667m85.333333 0l0 0q85.333333 0 85.333333 85.333333l0 0q0 85.333333-85.333333 85.333333l0 0q-85.333333 0-85.333333-85.333333l0 0q0-85.333333 85.333333-85.333333Z" fill="#ffffff" p-id="4280"></path><path d="M682.666667 426.666667m85.333333 0l0 0q85.333333 0 85.333333 85.333333l0 0q0 85.333333-85.333333 85.333333l0 0q-85.333333 0-85.333333-85.333333l0 0q0-85.333333 85.333333-85.333333Z" fill="#ffffff" p-id="4281"></path><path d="M170.666667 682.666667m85.333333 0l0 0q85.333333 0 85.333333 85.333333l0 0q0 85.333333-85.333333 85.333333l0 0q-85.333333 0-85.333333-85.333333l0 0q0-85.333333 85.333333-85.333333Z" fill="#ffffff" p-id="4282"></path><path d="M426.666667 682.666667m85.333333 0l0 0q85.333333 0 85.333333 85.333333l0 0q0 85.333333-85.333333 85.333333l0 0q-85.333333 0-85.333333-85.333333l0 0q0-85.333333 85.333333-85.333333Z" fill="#ffffff" p-id="4283"></path><path d="M682.666667 682.666667m85.333333 0l0 0q85.333333 0 85.333333 85.333333l0 0q0 85.333333-85.333333 85.333333l0 0q-85.333333 0-85.333333-85.333333l0 0q0-85.333333 85.333333-85.333333Z" fill="#ffffff" p-id="4284"></path></svg>